<?xml version="1.0" standalone="no"?>
<!DOCTYPE svg PUBLIC "-//W3C//DTD SVG 20010904//EN"
 "http://www.w3.org/TR/2001/REC-SVG-20010904/DTD/svg10.dtd">
<svg version="1.0" xmlns="http://www.w3.org/2000/svg"
 width="460.000000pt" height="460.000000pt" viewBox="0 0 460.000000 460.000000"
 preserveAspectRatio="xMidYMid meet">
<metadata>
Created by potrace 1.11, written by Peter Selinger 2001-2013
</metadata>
<g transform="translate(0.000000,460.000000) scale(0.100000,-0.100000)"
fill="#000000" stroke="none">
<path d="M255 4583 c4 -10 10 -29 13 -43 11 -55 153 -220 189 -220 7 0 13 -4
13 -9 0 -4 27 -27 59 -50 33 -23 76 -57 95 -76 20 -19 41 -35 46 -35 5 0 28
-18 50 -40 22 -22 45 -40 50 -40 6 0 10 -4 10 -10 0 -14 51 -62 58 -55 4 3 0
11 -8 16 -12 8 -12 10 -1 7 8 -2 18 -14 22 -27 6 -15 5 -20 -2 -15 -14 9 22
-48 39 -61 11 -9 9 -14 -7 -29 -11 -10 -18 -23 -15 -27 3 -5 0 -9 -6 -9 -6 0
-9 -4 -5 -9 3 -5 1 -12 -5 -16 -6 -4 -8 -11 -4 -16 3 -5 0 -8 -8 -7 -7 2 -13
-4 -13 -12 0 -8 -6 -23 -14 -32 -8 -9 -16 -27 -18 -40 -2 -13 -10 -28 -18 -34
-8 -6 -12 -14 -8 -17 3 -4 2 -7 -4 -7 -7 0 -11 -40 -12 -109 -2 -96 0 -111 16
-120 10 -6 12 -11 6 -11 -22 0 -14 -20 8 -20 15 0 19 -5 15 -15 -4 -10 1 -15
14 -15 11 0 20 -7 20 -15 0 -24 3 -29 31 -52 15 -13 30 -38 33 -57 4 -20 16
-41 31 -50 14 -9 25 -23 25 -31 0 -7 8 -20 18 -27 10 -7 25 -29 35 -48 9 -19
17 -31 17 -26 0 8 60 -62 60 -71 0 -2 -6 -1 -12 2 -7 4 -4 -1 7 -10 11 -9 20
-19 20 -23 0 -4 3 -6 8 -4 4 1 6 -2 5 -6 -2 -4 14 -23 34 -41 21 -18 35 -37
32 -43 -3 -5 0 -9 7 -7 27 3 40 -1 34 -11 -3 -5 -1 -10 4 -10 6 0 11 -7 11
-15 0 -8 5 -15 10 -15 6 0 10 -7 10 -15 0 -8 9 -15 19 -15 11 0 26 -8 33 -18
16 -22 68 -58 68 -46 0 4 6 0 13 -11 9 -12 19 -15 28 -10 8 5 11 5 7 1 -3 -4
6 -32 22 -62 15 -30 24 -57 19 -60 -5 -3 -5 -12 0 -22 12 -25 3 -154 -14 -181
-3 -6 -14 -8 -25 -6 -11 2 -19 1 -18 -3 1 -4 -14 -25 -35 -46 -20 -21 -37 -35
-37 -31 0 5 -9 0 -21 -11 -12 -10 -24 -19 -28 -19 -3 0 -5 -3 -3 -7 1 -5 -5
-8 -13 -8 -8 0 -15 -5 -15 -11 0 -14 -52 -69 -66 -69 -5 0 -20 -9 -32 -20 -12
-11 -34 -21 -49 -22 -30 -2 -52 -23 -53 -50 0 -9 -13 -26 -29 -37 -16 -12 -49
-40 -73 -64 -24 -23 -54 -43 -67 -45 -13 -2 -21 1 -17 6 3 6 -1 13 -9 16 -11
4 -15 0 -13 -12 2 -9 7 -20 11 -23 5 -3 -6 -19 -23 -35 -45 -42 -66 -80 -96
-174 -14 -47 -26 -87 -26 -90 0 -3 -6 -23 -12 -45 -19 -62 -20 -715 -1 -780 7
-27 16 -111 19 -185 3 -74 8 -146 10 -159 3 -13 8 -83 12 -155 8 -170 9 -183
25 -233 11 -34 19 -43 36 -43 13 0 23 -4 23 -10 0 -7 457 -10 1350 -10 l1351
0 -12 22 c-7 13 -11 23 -10 23 1 0 0 7 -3 15 -25 79 -27 90 -15 112 17 33 50
58 80 58 28 0 87 52 109 97 8 16 24 42 35 58 12 17 24 38 28 48 4 9 15 21 24
25 10 4 18 14 18 22 0 8 10 16 23 18 17 3 22 10 22 33 0 22 5 29 20 29 13 0
20 7 20 18 0 10 5 23 11 29 7 7 9 111 7 324 -3 309 -3 315 -25 338 -12 13 -20
28 -17 33 3 4 1 8 -5 8 -6 0 -8 7 -5 15 4 10 0 15 -14 15 -23 0 -31 9 -37 40
-2 11 -11 27 -19 36 -9 8 -16 26 -16 39 0 13 -7 28 -15 32 -8 5 -15 25 -17 45
-1 21 -8 40 -15 42 -7 3 -13 20 -13 37 0 18 -7 37 -15 43 -8 6 -15 30 -17 53
-1 31 -7 44 -20 49 -12 3 -18 15 -18 33 0 15 -4 31 -9 37 -6 5 -11 31 -13 58
-2 39 -7 50 -21 52 -10 1 -25 11 -33 21 -13 18 -14 23 -17 73 -1 14 -7 24 -14
23 -7 -2 -13 5 -13 15 0 10 -9 28 -20 40 -11 12 -20 24 -20 27 0 3 -9 16 -21
28 -12 12 -33 40 -48 61 -14 21 -30 46 -36 54 -17 25 -59 75 -82 97 -13 12
-23 26 -23 30 0 13 -102 103 -120 106 -3 1 -33 2 -68 3 -38 0 -66 6 -71 14 -4
7 -40 15 -89 19 -50 4 -79 10 -75 16 4 6 -13 8 -48 4 -30 -3 -48 -4 -41 -1 30
13 7 24 -52 24 -35 0 -66 4 -68 9 -1 5 -34 11 -73 13 -46 2 -75 8 -83 18 -10
11 -11 11 -6 1 5 -11 1 -12 -22 -7 -16 4 -32 13 -36 19 -6 9 -8 9 -8 -1 0 -9
-5 -10 -19 -2 -11 5 -36 10 -56 10 -28 0 -38 5 -44 23 -5 12 -5 27 0 33 5 6 6
14 2 17 -3 4 -1 8 5 8 7 1 21 3 32 4 11 1 25 3 30 4 20 2 11 128 -16 208 -23
68 -25 88 -19 158 12 142 12 155 4 155 -5 0 -8 78 -7 173 1 94 -1 179 -3 187
-10 33 -26 51 -47 53 -32 2 -27 11 13 26 19 7 35 17 35 22 0 9 -24 11 -116 11
-44 0 -51 3 -74 32 -9 12 -10 17 -2 12 16 -10 16 9 -1 26 -7 7 -14 28 -14 46
-1 17 -2 34 -3 37 -2 3 -3 8 -4 13 -7 29 -19 52 -27 52 -5 0 -8 3 -7 8 3 8
-52 85 -65 90 -4 2 -7 10 -7 17 0 8 -8 20 -17 27 -23 17 -51 64 -31 52 10 -6
10 -4 -1 9 -8 10 -28 17 -50 17 -20 0 -44 7 -53 14 -10 7 -35 12 -55 10 -21
-1 -43 2 -50 8 -8 6 -18 6 -30 0 -11 -6 -25 -7 -34 -2 -8 5 -38 12 -65 16 -27
3 -50 7 -50 8 -1 0 -4 37 -7 81 -7 120 -14 171 -26 194 -6 11 -11 29 -11 40 0
12 -9 30 -20 41 -19 19 -33 20 -243 20 -165 0 -227 -3 -236 -12 -11 -10 -13
-10 -7 0 5 9 -4 12 -33 12 -39 0 -41 -1 -29 -21 11 -17 11 -23 0 -26 -6 -3
-10 -9 -6 -14 8 -14 -4 -11 -31 7 -14 9 -25 25 -25 35 0 18 -13 19 -306 19
-288 0 -306 -1 -299 -17z m170 -183 c10 -11 15 -20 11 -20 -14 0 -46 21 -46
30 0 16 16 11 35 -10z m475 -400 c8 -5 13 -10 10 -11 -3 0 -12 -2 -21 -4 -9
-1 -16 4 -16 11 0 16 6 17 27 4z m555 -3680 c-3 -5 -12 -10 -18 -10 -7 0 -6 4
3 10 19 12 23 12 15 0z"/>
</g>
</svg>
